<svg width="615" height="408" viewBox="0 0 615 408" fill="none" xmlns="http://www.w3.org/2000/svg">
<g clip-path="url(#clip0_148_76)">
<path d="M377.975 136.15C392.641 136.15 404.531 124.28 404.531 109.637C404.531 94.9947 392.641 83.1246 377.975 83.1246C363.309 83.1246 351.419 94.9947 351.419 109.637C351.419 124.28 363.309 136.15 377.975 136.15Z" fill="#F2F2F2"/>
<path d="M220.117 83.1245C232.339 83.1245 242.247 73.2327 242.247 61.0306C242.247 48.8285 232.339 38.9368 220.117 38.9368C207.895 38.9368 197.987 48.8285 197.987 61.0306C197.987 73.2327 207.895 83.1245 220.117 83.1245Z" fill="#F2F2F2"/>
<path d="M147.827 292.28C160.049 292.28 169.957 282.388 169.957 270.186C169.957 257.984 160.049 248.092 147.827 248.092C135.605 248.092 125.697 257.984 125.697 270.186C125.697 282.388 135.605 292.28 147.827 292.28Z" fill="#F2F2F2"/>
<path d="M125.334 304.063C131.744 311.649 138.678 366.335 146.077 372.949L493.202 373.685C500.601 367.072 507.535 312.385 513.945 304.8L125.334 304.063H125.334Z" fill="#E6E6E6"/>
<path d="M233.541 239.826V315.357H286.542V239.826C286.543 238.711 285.816 237.725 284.749 237.395C284.504 237.315 284.247 237.275 283.989 237.278H236.101C234.69 237.275 233.544 238.415 233.541 239.823V239.826H233.541ZM254.225 265.779C254.254 262.659 256.81 260.153 259.935 260.182C263.019 260.211 265.512 262.7 265.54 265.779V274.543C265.526 277.662 262.98 280.179 259.856 280.164C256.752 280.15 254.24 277.641 254.225 274.543V265.779Z" fill="#3F3D56"/>
<path d="M150.164 126.028V263.937C150.166 267.597 153.137 270.563 156.802 270.566H361.502C365.167 270.563 368.138 267.597 368.141 263.937V126.028C368.132 122.372 365.163 119.411 361.502 119.407H156.802C153.141 119.411 150.172 122.372 150.164 126.028Z" fill="#3F3D56"/>
<path d="M154.908 128.012V262.505C154.911 264.46 156.498 266.044 158.456 266.047H359.74C361.698 266.044 363.284 264.46 363.288 262.505V128.012C363.288 126.054 361.7 124.466 359.74 124.462H158.456C156.495 124.466 154.908 126.054 154.908 128.012Z" fill="#EAC944"/>
<path d="M196.009 323.37C196.424 323.89 197.055 324.191 197.721 324.187H317.471C318.688 324.186 319.674 323.2 319.672 321.985C319.672 321.834 319.656 321.684 319.625 321.536L317.766 312.721C317.61 311.99 317.093 311.389 316.394 311.123C316.145 311.025 315.88 310.975 315.612 310.975H199.572C199.304 310.975 199.039 311.025 198.79 311.123C198.091 311.389 197.575 311.99 197.418 312.721L195.559 321.536C195.425 322.184 195.59 322.857 196.009 323.37H196.009Z" fill="#3F3D56"/>
<path d="M164.985 142.721H353.326C353.74 142.712 354.068 142.37 354.059 141.957C354.05 141.556 353.727 141.234 353.326 141.225H164.985C164.572 141.234 164.244 141.576 164.253 141.989C164.261 142.39 164.584 142.712 164.985 142.721Z" fill="#3F3D56"/>
<path d="M587.131 288.838C587.116 288.801 587.109 288.771 587.094 288.742C586.809 287.976 586.477 287.228 586.099 286.503C583.952 282.475 586.224 276.289 583.804 269.454C579.895 258.378 575.13 251.845 568.144 245.99C567.937 245.814 567.731 245.644 567.517 245.468L567.51 245.46C562.848 241.638 557.227 238.066 550.248 233.618C548.795 232.69 543.772 235.371 543.89 230.775C544.023 225.672 544.163 220.384 541.655 217.084L541.493 216.871L541.234 216.804C532.635 215.106 523.865 214.432 515.107 214.794H515.099C511.381 214.932 507.688 215.473 504.086 216.407C503.82 216.48 503.555 216.554 503.297 216.642C503.098 216.694 502.898 216.76 502.699 216.827L502.537 216.886L502.412 217.003C499.985 219.426 499.424 223.771 499.159 228.301V228.308C499.107 229.133 499.063 229.958 499.026 230.783C498.819 235.187 488.175 238.744 484.118 240.739C476.498 244.495 477.647 253.247 477.559 253.247C477.559 253.247 464.747 279.507 464.592 306.1C464.585 307.581 464.575 309.068 464.563 310.563C464.474 322.951 464.238 335.552 463.309 347.033C462.903 351.967 462.379 356.688 461.678 361.099C458.27 382.582 442.831 364.745 435.447 379.04C435.69 380.445 436.098 381.817 436.664 383.127C437.513 383.628 438.383 384.114 439.246 384.6C443.075 386.728 446.974 388.714 450.945 390.558C451.167 390.661 451.388 390.764 451.609 390.86C458.893 394.224 466.4 397.084 474.078 399.418C475.576 399.874 477.073 400.309 478.585 400.721C491.962 404.408 505.735 406.467 519.606 406.856C519.663 406.85 519.719 406.847 519.776 406.848C536.181 406.396 552.478 404.05 568.343 399.859C568.564 399.801 568.786 399.742 569.007 399.683C570.047 399.403 571.08 399.123 572.113 398.828C581.243 396.235 590.189 393.031 598.89 389.24C598.898 389.563 598.93 389.886 598.985 390.204C598.993 390.308 599.008 390.412 599.03 390.514C599.044 390.396 599.059 390.278 599.066 390.16C599.111 389.814 599.148 389.461 599.184 389.107C603.699 345.155 594.323 307.839 587.131 288.838V288.838Z" fill="#CCCCCC"/>
<path d="M521.831 210.977C545.489 210.977 564.667 191.83 564.667 168.21C564.667 144.591 545.489 125.443 521.831 125.443C498.173 125.443 478.995 144.591 478.995 168.21C478.995 191.83 498.173 210.977 521.831 210.977Z" fill="#FFB6B6"/>
<path d="M525.002 211.747C531.533 210.582 537.952 208.863 544.19 206.607C550.314 204.072 562.544 190.86 565.295 183.805C567.34 178.564 567.807 170.909 567.84 165.411C567.977 150.687 561.855 136.596 550.994 126.635C548.892 124.546 546.263 123.064 543.386 122.345C543.135 122.299 542.879 122.265 542.622 122.243C538.584 121.981 534.716 120.52 531.515 118.048C530.89 117.543 530.229 117.084 529.537 116.675C526.09 114.757 522.238 113.68 518.295 113.533C511.89 113.09 503.396 116.418 493.048 123.429C487.85 126.951 481.478 127.282 476.505 127.176C475.94 127.177 475.418 127.478 475.134 127.965C473.475 130.262 471.007 131.848 468.226 132.402C466.535 132.809 465.206 135.514 463.643 139.008C463.289 139.802 462.875 140.727 462.559 141.303L462.318 140.362L461.56 141.611C457.664 148.037 459.722 156.4 466.159 160.291C467.888 161.336 469.83 161.984 471.842 162.188C473.646 162.31 475.458 162.248 477.249 162.002C478.342 161.89 479.471 161.774 480.571 161.751C487.796 161.82 494.453 165.674 498.102 171.899C499.618 174.445 502.915 175.28 505.464 173.766C505.865 173.528 506.233 173.24 506.558 172.907C508.467 170.72 511.327 169.605 514.214 169.92C515.499 170.338 516.601 171.185 517.335 172.318C518.203 173.57 519.425 174.536 520.845 175.092C525.6 176.476 527.821 186.273 527.872 194.79C527.921 202.999 526.081 209.302 523.398 210.118C521.333 210.746 521.121 210.942 521.041 211.344L520.969 211.704L521.267 211.97C522.514 212.164 523.787 212.089 525.002 211.747H525.002Z" fill="#2F2E41"/>
<path d="M373.394 343.969C381.596 343.969 388.245 341.851 388.245 339.237C388.245 336.624 381.596 334.505 373.394 334.505C365.192 334.505 358.543 336.624 358.543 339.237C358.543 341.851 365.192 343.969 373.394 343.969Z" fill="#3F3D56"/>
<path d="M373.394 340.814C381.596 340.814 388.245 338.696 388.245 336.083C388.245 333.469 381.596 331.351 373.394 331.351C365.192 331.351 358.543 333.469 358.543 336.083C358.543 338.696 365.192 340.814 373.394 340.814Z" fill="#3F3D56"/>
<path d="M370.783 339.254L372.996 339.221L372.385 297.965C372.205 284.266 379.332 271.504 391.099 264.456L433.337 239.25L432.201 237.353L389.964 262.56C377.519 270.014 369.981 283.51 370.172 297.998L370.783 339.254V339.254Z" fill="#3F3D56"/>
<path d="M432.24 257.848H432.24C429.274 257.848 426.869 255.447 426.869 252.485V219.046C426.869 216.084 429.274 213.683 432.24 213.683H432.24C435.207 213.683 437.612 216.084 437.612 219.046V252.485C437.612 255.447 435.207 257.848 432.24 257.848Z" fill="#EAC944"/>
<path d="M361.995 283.208C363.856 290.005 370.883 294.009 377.691 292.151C378.417 291.953 379.124 291.691 379.804 291.369L411.658 323.684L416.587 300.643L385.582 273.488C382.121 267.304 374.293 265.092 368.098 268.547C362.915 271.439 360.391 277.5 361.994 283.208H361.995V283.208Z" fill="#FFB6B6"/>
<path d="M528.383 249.466L528.181 249.353L504.955 241.379C498.99 239.33 492.431 239.938 486.946 243.048C485.687 243.759 484.503 244.595 483.411 245.543L483.404 245.544C479.765 248.683 477.257 252.927 476.265 257.626L464.066 315.451L439.537 302.254L429.542 299.871L420.444 290.755L397.723 281.518L396.462 283.021L385.03 296.664L384.132 297.736L409.304 334.095L420.588 335.321L423.749 340.935L423.972 341.037L433.222 345.2L472.673 362.945L491.777 348.348L494.767 346.057C519.483 323.195 531.036 304.804 535.86 290.797C538.413 283.398 539.085 277.233 538.832 272.263C538.047 256.902 528.775 249.76 528.383 249.466H528.383Z" fill="#CCCCCC"/>
<path d="M550.218 263.558H539.153C507.172 263.558 481.247 289.441 481.247 321.37V321.37C470.925 334.114 471.557 350.116 481.247 368.813L449.531 355.612C445.015 353.744 439.837 355.884 437.965 360.393C436.099 364.889 438.224 370.044 442.719 371.926L481.247 387.962V390.948C481.247 400.313 488.851 407.904 498.231 407.904H591.14C600.52 407.904 608.124 400.313 608.124 390.948C615.012 365.719 619.323 341.251 608.124 321.37C608.124 289.441 582.198 263.558 550.218 263.558V263.558Z" fill="#3F3D56"/>
<path d="M58.0327 300.175C57.3157 300.178 56.6004 300.245 55.8955 300.376L44.1656 226.24L55.9168 154.869C57.53 145.073 50.8835 135.826 41.0714 134.215C32.2167 132.762 23.6417 138.04 20.9652 146.591V146.591C16.56 160.665 14.3801 175.338 14.504 190.082L14.9139 238.756L46.1847 313.508C46.9682 320.043 52.9095 324.706 59.4548 323.924C66.0001 323.142 70.671 317.21 69.8875 310.675C69.169 304.683 64.0773 300.173 58.0327 300.175V300.175V300.175Z" fill="#FFB8B8"/>
<path d="M36.55 129.477C20.9207 129.503 8.25734 142.146 8.23145 157.75L13.9852 215.783L14.5015 220.982L14.7671 220.998L34.9714 221.999H34.9788L44.7822 222.485L46.4641 222.566L48.3894 215.783L64.8686 157.75C64.8518 142.143 52.183 129.494 36.55 129.477V129.477Z" fill="#E6E6E6"/>
<path d="M37.4203 408L28.1259 379.528C28.1259 379.528 11.086 362.229 32.9428 316.303C33.4222 315.287 33.9238 314.263 34.4476 313.217C35.3623 311.383 36.3409 309.503 37.3834 307.576C38.962 304.777 40.5627 301.883 42.37 298.893L44.0223 299.188L45.5862 299.46L50.9342 300.403H50.9415L128.388 314.028C128.388 314.028 126.964 320.375 126.197 327.188C125.585 332.778 125.386 338.434 126.831 340.827C129.959 346.174 125.732 360.623 125.732 360.623C125.732 360.623 125.968 362.023 126.367 364.497V364.505C126.758 366.913 127.304 370.33 127.923 374.469C127.953 374.748 127.99 375.029 128.034 375.309C129.015 382.01 130.188 390.472 131.235 399.567C131.56 402.329 131.87 405.15 132.165 408L37.4204 408H37.4203Z" fill="#2F2E41"/>
<path d="M15.3457 144.489C17.2905 139.134 21.8341 135.137 27.4 133.886C31.4597 132.733 35.6849 132.272 39.8981 132.522C52.2318 133.007 49.1219 105.42 61.3347 107.207C61.3347 107.207 72.8295 103.111 81.8235 110.616C89.994 117.434 95.6265 135.977 97.7233 134.922C98.169 134.702 99.2392 134.725 100.737 134.924C118.237 137.242 130.829 152.915 129.789 170.509L128.901 185.55C128.901 185.55 135.184 194.993 126.066 211.665L114.579 262.917C114.579 262.917 143.319 319.748 130.07 331.408C116.821 343.068 64.873 324.887 64.873 324.887C64.873 324.887 35.7418 315.896 29.5979 312C16.6202 303.768 33.2069 285 43.4621 285.885C44.0137 283.701 43.2874 281.394 41.584 279.919C38.7496 278.111 41.9254 274.02 42.1644 273.645C41.8912 273.918 39.7399 276.168 38.1008 271.429C36.4618 266.69 41.5156 260.724 41.5156 260.724L27.2418 230.04L16.0071 205.8L14.6411 203.005L16.9845 187.923L16.7652 187.47C11.7718 177.076 10.6666 165.241 13.6495 154.105C14.7317 150.01 15.5105 146.278 15.3456 144.489L15.3457 144.489Z" fill="#E6E6E6"/>
<path d="M132.165 408H127.237C128.602 405.076 129.952 402.241 131.235 399.567C131.56 402.329 131.87 405.15 132.165 408Z" fill="#2F2E41"/>
<path d="M228.887 236.444C228.451 237.012 228.066 237.618 227.738 238.254L161.844 202.125L112.515 149.154C105.744 141.883 94.3519 141.469 87.0693 148.229C80.4976 154.329 79.428 164.329 84.5613 171.677L84.5613 171.677C93.0101 183.77 103.296 194.475 115.049 203.404L153.847 232.879L232.193 253.96C237.848 257.342 245.179 255.507 248.566 249.861C251.954 244.215 250.116 236.897 244.461 233.514C239.276 230.413 232.587 231.671 228.887 236.444H228.887Z" fill="#FFB8B8"/>
<path d="M139.693 222.124L159.254 199.343L160.344 198.069L120.276 143.857C118.544 142.511 116.658 141.376 114.657 140.475L114.651 140.47C100.416 134.01 83.6301 140.295 77.1597 154.508C71.728 166.439 75.2228 180.533 85.6025 188.556L97.2962 195.877L139.518 222.324L139.693 222.124Z" fill="#E6E6E6"/>
<path d="M104.584 82.4171C94.5966 100.651 71.6949 107.348 53.4319 97.377C35.1689 87.4056 28.4602 64.541 38.4478 46.3075C48.4353 28.074 71.3369 21.3763 89.5999 31.3476C97.2714 35.5361 103.246 42.2573 106.499 50.3599C106.672 50.7905 106.827 51.2212 106.982 51.6691C110.627 61.7888 109.753 72.9825 104.584 82.4171V82.4171Z" fill="#FFB6B6"/>
<path d="M110.002 51.6691C108.38 47.1387 109.087 49.4987 107.448 44.9855C108.518 48.9819 106.827 51.2212 106.982 51.6691H62.1055V25.6238C75.2529 20.4215 88.1068 15.9945 95.871 25.6238C110.278 25.6244 121.958 37.2849 121.959 51.6691L110.002 51.6691V51.6691Z" fill="#2F2E41"/>
<path d="M94.0943 124.069C94.0598 123.587 94.0081 123.087 93.939 122.605C93.336 119.066 92.3586 115.602 91.0231 112.269C89.7291 108.635 88.4178 104.983 87.1066 101.348C88.7951 107.946 88.2802 114.914 85.6399 121.192C78.0655 115.301 82.845 101.831 72.9412 101.831C49.1311 101.831 24.6309 82.5549 24.6309 58.7661C24.6309 34.9944 34.845 17.2175 58.6551 17.2175C82.4826 17.2175 101.807 28.1041 102.273 51.8758C72.9412 58.7661 99.6327 121.657 94.0943 124.069V124.069Z" fill="#2F2E41"/>
<path d="M27.6059 55.1225C42.8522 55.1225 55.2118 42.7829 55.2118 27.5613C55.2118 12.3396 42.8522 0 27.6059 0C12.3596 0 0 12.3396 0 27.5613C0 42.7829 12.3596 55.1225 27.6059 55.1225Z" fill="#2F2E41"/>
<path d="M173.144 136.188C174.985 136.188 176.477 134.666 176.477 132.787C176.477 130.908 174.985 129.385 173.144 129.385C171.304 129.385 169.812 130.908 169.812 132.787C169.812 134.666 171.304 136.188 173.144 136.188Z" fill="#3F3D56"/>
<path d="M184.657 136.188C186.498 136.188 187.99 134.666 187.99 132.787C187.99 130.908 186.498 129.385 184.657 129.385C182.817 129.385 181.325 130.908 181.325 132.787C181.325 134.666 182.817 136.188 184.657 136.188Z" fill="#3F3D56"/>
<path d="M196.171 136.188C198.011 136.188 199.503 134.666 199.503 132.787C199.503 130.908 198.011 129.385 196.171 129.385C194.33 129.385 192.838 130.908 192.838 132.787C192.838 134.666 194.33 136.188 196.171 136.188Z" fill="#3F3D56"/>
<path d="M209.299 135.475C209.197 135.475 209.095 135.436 209.017 135.357L206.769 133.062C206.619 132.909 206.619 132.665 206.769 132.512L209.017 130.217C209.17 130.062 209.42 130.059 209.575 130.211C209.73 130.363 209.733 130.612 209.581 130.767L207.602 132.787L209.581 134.807C209.733 134.962 209.73 135.211 209.575 135.363C209.498 135.438 209.399 135.475 209.299 135.475V135.475Z" fill="#3F3D56"/>
<path d="M213.078 135.475C212.978 135.475 212.879 135.438 212.802 135.363C212.646 135.211 212.644 134.962 212.796 134.807L214.775 132.787L212.796 130.767C212.644 130.612 212.646 130.363 212.802 130.211C212.957 130.059 213.207 130.061 213.359 130.217L215.608 132.512C215.758 132.665 215.758 132.909 215.608 133.062L213.359 135.357C213.282 135.436 213.18 135.475 213.078 135.475L213.078 135.475Z" fill="#3F3D56"/>
<path d="M338.075 129.779H333.894C333.417 129.779 333.031 130.165 333.031 130.641V134.819C333.031 135.296 333.417 135.681 333.894 135.681H338.075C338.552 135.681 338.942 135.296 338.942 134.819V130.641C338.942 130.165 338.552 129.779 338.075 129.779Z" fill="#3F3D56"/>
<path d="M327.829 129.779H323.647C323.17 129.779 322.784 130.165 322.784 130.641V134.819C322.784 135.296 323.17 135.681 323.647 135.681H327.829C328.306 135.681 328.696 135.296 328.696 134.819V130.641C328.696 130.165 328.306 129.779 327.829 129.779Z" fill="#3F3D56"/>
<path d="M347.731 129.976H343.55C343.073 129.976 342.687 130.362 342.687 130.838V135.016C342.687 135.492 343.073 135.878 343.55 135.878H347.731C348.208 135.878 348.598 135.492 348.598 135.016V130.838C348.598 130.362 348.208 129.976 347.731 129.976Z" fill="#3F3D56"/>
<path d="M278.259 131.566H241.431C240.847 131.566 240.378 132.038 240.378 132.616C240.378 133.195 240.847 133.667 241.431 133.667H278.259C278.838 133.667 279.311 133.195 279.311 132.616C279.311 132.038 278.838 131.566 278.259 131.566Z" fill="#3F3D56"/>
<g filter="url(#filter0_d_148_76)">
<path d="M182.522 202.436L185.515 185.277H187.648L184.655 202.436H182.522ZM186.941 202.436L189.946 185.277H192.08L189.074 202.436H186.941ZM193.836 192.171H181.567V190.179H193.836V192.171ZM192.94 197.604H180.683V195.624H192.94V197.604ZM207.342 199.678V202.436H198.208V199.678H207.342ZM199.363 185.277V202.436H195.827V185.277H199.363ZM206.151 192.265V194.952H198.208V192.265H206.151ZM207.33 185.277V188.046H198.208V185.277H207.33ZM212.515 192.407V202.436H209.121V189.684H212.303L212.515 192.407ZM212.02 195.612H211.101C211.101 194.67 211.223 193.821 211.466 193.067C211.71 192.305 212.052 191.657 212.492 191.122C212.932 190.58 213.454 190.168 214.059 189.885C214.672 189.594 215.356 189.449 216.11 189.449C216.707 189.449 217.253 189.535 217.748 189.708C218.243 189.881 218.667 190.156 219.021 190.533C219.382 190.91 219.657 191.409 219.846 192.03C220.042 192.65 220.14 193.409 220.14 194.304V202.436H216.723V194.293C216.723 193.727 216.644 193.287 216.487 192.973C216.33 192.658 216.098 192.438 215.792 192.313C215.493 192.179 215.124 192.112 214.684 192.112C214.228 192.112 213.831 192.203 213.493 192.383C213.163 192.564 212.888 192.815 212.668 193.138C212.456 193.452 212.295 193.821 212.185 194.245C212.075 194.67 212.02 195.125 212.02 195.612ZM230.794 189.684H233.87V202.012C233.87 203.175 233.611 204.161 233.092 204.97C232.582 205.787 231.867 206.404 230.948 206.82C230.028 207.245 228.96 207.457 227.742 207.457C227.208 207.457 226.642 207.386 226.045 207.245C225.456 207.103 224.89 206.883 224.348 206.585C223.813 206.286 223.366 205.909 223.004 205.453L224.501 203.45C224.894 203.905 225.349 204.259 225.868 204.51C226.387 204.77 226.96 204.899 227.589 204.899C228.202 204.899 228.72 204.785 229.144 204.558C229.569 204.338 229.895 204.011 230.123 203.579C230.35 203.155 230.464 202.64 230.464 202.035V192.631L230.794 189.684ZM222.215 196.214V195.966C222.215 194.992 222.332 194.108 222.568 193.314C222.812 192.513 223.153 191.825 223.593 191.252C224.041 190.678 224.583 190.234 225.22 189.92C225.856 189.606 226.575 189.449 227.377 189.449C228.225 189.449 228.936 189.606 229.51 189.92C230.083 190.234 230.555 190.682 230.924 191.264C231.293 191.837 231.58 192.517 231.784 193.303C231.996 194.08 232.161 194.933 232.279 195.86V196.402C232.161 197.29 231.985 198.115 231.749 198.877C231.513 199.639 231.203 200.307 230.818 200.88C230.433 201.446 229.954 201.886 229.38 202.2C228.814 202.515 228.139 202.672 227.353 202.672C226.567 202.672 225.856 202.511 225.22 202.189C224.591 201.867 224.053 201.415 223.605 200.833C223.157 200.252 222.812 199.568 222.568 198.783C222.332 197.997 222.215 197.141 222.215 196.214ZM225.609 195.966V196.214C225.609 196.74 225.66 197.231 225.762 197.687C225.864 198.142 226.021 198.547 226.233 198.901C226.453 199.246 226.724 199.517 227.047 199.714C227.377 199.902 227.765 199.997 228.213 199.997C228.834 199.997 229.341 199.867 229.734 199.608C230.126 199.341 230.421 198.975 230.618 198.512C230.814 198.048 230.928 197.514 230.959 196.909V195.365C230.944 194.87 230.877 194.426 230.759 194.033C230.641 193.633 230.476 193.291 230.264 193.008C230.052 192.725 229.777 192.505 229.439 192.348C229.101 192.191 228.7 192.112 228.237 192.112C227.789 192.112 227.4 192.214 227.07 192.419C226.748 192.615 226.477 192.886 226.257 193.232C226.045 193.578 225.884 193.986 225.774 194.457C225.664 194.921 225.609 195.424 225.609 195.966ZM236.675 200.798C236.675 200.295 236.848 199.875 237.194 199.537C237.547 199.199 238.015 199.03 238.596 199.03C239.178 199.03 239.641 199.199 239.987 199.537C240.34 199.875 240.517 200.295 240.517 200.798C240.517 201.301 240.34 201.721 239.987 202.059C239.641 202.397 239.178 202.566 238.596 202.566C238.015 202.566 237.547 202.397 237.194 202.059C236.848 201.721 236.675 201.301 236.675 200.798ZM247.482 185.277V202.436H243.958V185.277H247.482ZM253.905 192.407V202.436H250.511V189.684H253.693L253.905 192.407ZM253.41 195.612H252.491C252.491 194.67 252.613 193.821 252.856 193.067C253.1 192.305 253.442 191.657 253.882 191.122C254.322 190.58 254.844 190.168 255.449 189.885C256.062 189.594 256.746 189.449 257.5 189.449C258.097 189.449 258.643 189.535 259.138 189.708C259.633 189.881 260.057 190.156 260.411 190.533C260.772 190.91 261.047 191.409 261.236 192.03C261.432 192.65 261.53 193.409 261.53 194.304V202.436H258.113V194.293C258.113 193.727 258.034 193.287 257.877 192.973C257.72 192.658 257.488 192.438 257.182 192.313C256.883 192.179 256.514 192.112 256.074 192.112C255.618 192.112 255.221 192.203 254.883 192.383C254.553 192.564 254.279 192.815 254.059 193.138C253.846 193.452 253.685 193.821 253.575 194.245C253.465 194.67 253.41 195.125 253.41 195.612ZM271.642 199.655V184.334H275.06V202.436H271.984L271.642 199.655ZM263.581 196.214V195.966C263.581 194.992 263.691 194.108 263.911 193.314C264.131 192.513 264.453 191.825 264.877 191.252C265.302 190.678 265.824 190.234 266.445 189.92C267.066 189.606 267.773 189.449 268.566 189.449C269.313 189.449 269.965 189.606 270.523 189.92C271.088 190.234 271.568 190.682 271.96 191.264C272.361 191.837 272.683 192.517 272.927 193.303C273.17 194.08 273.347 194.933 273.457 195.86V196.402C273.347 197.29 273.17 198.115 272.927 198.877C272.683 199.639 272.361 200.307 271.96 200.88C271.568 201.446 271.088 201.886 270.523 202.2C269.957 202.515 269.297 202.672 268.543 202.672C267.749 202.672 267.042 202.511 266.421 202.189C265.808 201.867 265.29 201.415 264.866 200.833C264.449 200.252 264.131 199.568 263.911 198.783C263.691 197.997 263.581 197.141 263.581 196.214ZM266.975 195.966V196.214C266.975 196.74 267.014 197.231 267.093 197.687C267.179 198.142 267.317 198.547 267.506 198.901C267.702 199.246 267.953 199.517 268.26 199.714C268.574 199.902 268.955 199.997 269.403 199.997C269.984 199.997 270.464 199.867 270.841 199.608C271.218 199.341 271.505 198.975 271.701 198.512C271.905 198.048 272.023 197.514 272.055 196.909V195.365C272.031 194.87 271.96 194.426 271.843 194.033C271.733 193.633 271.568 193.291 271.348 193.008C271.135 192.725 270.868 192.505 270.546 192.348C270.232 192.191 269.859 192.112 269.427 192.112C268.987 192.112 268.609 192.214 268.295 192.419C267.981 192.615 267.726 192.886 267.529 193.232C267.341 193.578 267.199 193.986 267.105 194.457C267.018 194.921 266.975 195.424 266.975 195.966ZM285.254 199.384V189.684H288.648V202.436H285.455L285.254 199.384ZM285.631 196.767L286.633 196.744C286.633 197.592 286.535 198.382 286.338 199.113C286.142 199.836 285.847 200.464 285.455 200.998C285.062 201.525 284.567 201.937 283.97 202.236C283.373 202.527 282.669 202.672 281.86 202.672C281.239 202.672 280.666 202.585 280.139 202.413C279.621 202.232 279.173 201.953 278.796 201.576C278.427 201.191 278.136 200.7 277.924 200.103C277.719 199.498 277.617 198.771 277.617 197.922V189.684H281.012V197.946C281.012 198.323 281.055 198.641 281.141 198.901C281.235 199.16 281.365 199.372 281.53 199.537C281.695 199.702 281.888 199.82 282.108 199.891C282.335 199.961 282.587 199.997 282.862 199.997C283.561 199.997 284.111 199.855 284.512 199.572C284.92 199.289 285.207 198.904 285.372 198.417C285.545 197.922 285.631 197.372 285.631 196.767ZM298.136 198.912C298.136 198.669 298.065 198.449 297.923 198.252C297.782 198.056 297.519 197.875 297.134 197.71C296.757 197.537 296.211 197.38 295.496 197.239C294.851 197.097 294.25 196.921 293.693 196.708C293.143 196.489 292.663 196.225 292.255 195.919C291.854 195.612 291.54 195.251 291.312 194.835C291.084 194.41 290.97 193.927 290.97 193.385C290.97 192.851 291.084 192.348 291.312 191.877C291.548 191.405 291.882 190.989 292.314 190.627C292.754 190.258 293.288 189.971 293.916 189.767C294.553 189.555 295.268 189.449 296.061 189.449C297.169 189.449 298.12 189.626 298.913 189.979C299.715 190.333 300.328 190.82 300.752 191.44C301.184 192.053 301.4 192.753 301.4 193.538H298.006C298.006 193.208 297.935 192.914 297.794 192.654C297.66 192.387 297.448 192.179 297.157 192.03C296.875 191.873 296.505 191.794 296.05 191.794C295.672 191.794 295.346 191.861 295.071 191.994C294.796 192.12 294.584 192.293 294.435 192.513C294.294 192.725 294.223 192.961 294.223 193.22C294.223 193.416 294.262 193.593 294.341 193.75C294.427 193.9 294.565 194.037 294.753 194.163C294.942 194.289 295.185 194.406 295.484 194.516C295.79 194.619 296.167 194.713 296.615 194.799C297.535 194.988 298.356 195.235 299.078 195.542C299.801 195.84 300.375 196.249 300.799 196.767C301.223 197.278 301.435 197.95 301.435 198.783C301.435 199.348 301.31 199.867 301.058 200.338C300.807 200.81 300.446 201.222 299.974 201.576C299.503 201.922 298.937 202.193 298.277 202.389C297.625 202.578 296.89 202.672 296.073 202.672C294.887 202.672 293.881 202.46 293.056 202.035C292.239 201.611 291.618 201.073 291.194 200.421C290.778 199.761 290.569 199.085 290.569 198.394H293.787C293.803 198.857 293.92 199.231 294.14 199.513C294.368 199.796 294.655 200.001 295.001 200.126C295.354 200.252 295.735 200.315 296.144 200.315C296.584 200.315 296.949 200.256 297.24 200.138C297.531 200.012 297.751 199.847 297.9 199.643C298.057 199.431 298.136 199.187 298.136 198.912ZM309.886 189.684V192.089H302.461V189.684H309.886ZM304.299 186.538H307.693V198.594C307.693 198.963 307.741 199.246 307.835 199.443C307.937 199.639 308.086 199.777 308.283 199.855C308.479 199.926 308.727 199.961 309.025 199.961C309.237 199.961 309.426 199.953 309.591 199.938C309.764 199.914 309.909 199.891 310.027 199.867L310.039 202.365C309.748 202.46 309.434 202.534 309.096 202.589C308.758 202.644 308.385 202.672 307.976 202.672C307.23 202.672 306.578 202.55 306.02 202.307C305.47 202.055 305.046 201.654 304.747 201.104C304.449 200.554 304.299 199.832 304.299 198.936V186.538ZM315.213 192.466V202.436H311.818V189.684H315.012L315.213 192.466ZM319.055 189.602L318.996 192.749C318.831 192.725 318.63 192.705 318.395 192.69C318.167 192.666 317.959 192.654 317.77 192.654C317.291 192.654 316.874 192.717 316.521 192.843C316.175 192.961 315.884 193.138 315.649 193.373C315.421 193.609 315.248 193.896 315.13 194.234C315.02 194.571 314.957 194.956 314.941 195.389L314.258 195.176C314.258 194.351 314.34 193.593 314.505 192.902C314.67 192.203 314.91 191.594 315.224 191.075C315.546 190.557 315.939 190.156 316.403 189.873C316.866 189.59 317.397 189.449 317.994 189.449C318.182 189.449 318.375 189.464 318.571 189.496C318.768 189.519 318.929 189.555 319.055 189.602ZM324.24 189.684V202.436H320.834V189.684H324.24ZM320.622 186.361C320.622 185.866 320.795 185.457 321.141 185.135C321.486 184.813 321.95 184.652 322.531 184.652C323.105 184.652 323.564 184.813 323.91 185.135C324.264 185.457 324.44 185.866 324.44 186.361C324.44 186.856 324.264 187.265 323.91 187.587C323.564 187.909 323.105 188.07 322.531 188.07C321.95 188.07 321.486 187.909 321.141 187.587C320.795 187.265 320.622 186.856 320.622 186.361ZM333.928 199.561V193.88C333.928 193.471 333.861 193.122 333.727 192.831C333.594 192.533 333.385 192.301 333.103 192.136C332.828 191.971 332.47 191.888 332.03 191.888C331.653 191.888 331.327 191.955 331.052 192.089C330.777 192.214 330.565 192.399 330.416 192.643C330.266 192.878 330.192 193.157 330.192 193.479H326.797C326.797 192.937 326.923 192.423 327.175 191.935C327.426 191.448 327.791 191.02 328.271 190.651C328.75 190.274 329.32 189.979 329.98 189.767C330.647 189.555 331.394 189.449 332.219 189.449C333.209 189.449 334.089 189.614 334.859 189.944C335.629 190.274 336.234 190.769 336.674 191.429C337.121 192.089 337.345 192.914 337.345 193.904V199.36C337.345 200.059 337.389 200.633 337.475 201.081C337.561 201.521 337.687 201.906 337.852 202.236V202.436H334.423C334.258 202.09 334.132 201.658 334.045 201.14C333.967 200.613 333.928 200.087 333.928 199.561ZM334.375 194.67L334.399 196.591H332.502C332.054 196.591 331.665 196.642 331.335 196.744C331.005 196.846 330.734 196.991 330.522 197.18C330.31 197.361 330.152 197.573 330.05 197.816C329.956 198.06 329.909 198.327 329.909 198.618C329.909 198.908 329.976 199.172 330.109 199.407C330.243 199.635 330.435 199.816 330.687 199.949C330.938 200.075 331.233 200.138 331.571 200.138C332.081 200.138 332.525 200.036 332.902 199.832C333.279 199.627 333.57 199.376 333.774 199.077C333.987 198.779 334.097 198.496 334.104 198.229L335 199.667C334.874 199.989 334.702 200.323 334.482 200.668C334.269 201.014 333.998 201.34 333.668 201.647C333.338 201.945 332.942 202.193 332.478 202.389C332.014 202.578 331.464 202.672 330.828 202.672C330.019 202.672 329.284 202.511 328.624 202.189C327.972 201.859 327.454 201.407 327.069 200.833C326.691 200.252 326.503 199.592 326.503 198.853C326.503 198.186 326.629 197.592 326.88 197.074C327.131 196.555 327.501 196.119 327.988 195.766C328.483 195.404 329.1 195.133 329.838 194.952C330.577 194.764 331.433 194.67 332.407 194.67H334.375ZM343.544 184.334V202.436H340.138V184.334H343.544Z" fill="white"/>
</g>
</g>
<defs>
<filter id="filter0_d_148_76" x="177.666" y="184.334" width="168.895" height="29.1569" filterUnits="userSpaceOnUse" color-interpolation-filters="sRGB">
<feFlood flood-opacity="0" result="BackgroundImageFix"/>
<feColorMatrix in="SourceAlpha" type="matrix" values="0 0 0 0 0 0 0 0 0 0 0 0 0 0 0 0 0 0 127 0" result="hardAlpha"/>
<feOffset dy="3.01704"/>
<feGaussianBlur stdDeviation="1.50852"/>
<feComposite in2="hardAlpha" operator="out"/>
<feColorMatrix type="matrix" values="0 0 0 0 0.820833 0 0 0 0 0.682812 0 0 0 0 0.126545 0 0 0 1 0"/>
<feBlend mode="normal" in2="BackgroundImageFix" result="effect1_dropShadow_148_76"/>
<feBlend mode="normal" in="SourceGraphic" in2="effect1_dropShadow_148_76" result="shape"/>
</filter>
<clipPath id="clip0_148_76">
<rect width="615" height="408" fill="white"/>
</clipPath>
</defs>
</svg>
