<svg width="17" height="18" viewBox="0 0 17 18" fill="none" xmlns="http://www.w3.org/2000/svg">
<path d="M6.6092 13.4616L11.5494 6.94444C11.9721 6.3534 12.3578 5.73593 12.7067 5.09205C13.0555 4.44816 13.2387 4.11391 13.2563 4.08928C13.6262 3.57211 14.0574 3.48966 14.5499 3.84191C14.8701 4.07088 15.1145 4.43179 15.2831 4.92464C15.4764 5.4351 15.485 5.81346 15.3088 6.05973C15.2912 6.08436 15.131 6.23033 14.8282 6.49764C13.9196 7.29958 12.6728 8.80876 11.0876 11.0252C9.48485 13.2662 8.58995 14.8038 8.40292 15.6378C8.21588 16.4719 8.01669 17.0366 7.80533 17.3322C7.6292 17.5784 7.39338 17.5959 7.09786 17.3845C6.80233 17.1732 6.53151 16.8492 6.2854 16.4126C6.02167 16.0007 5.79309 15.6697 5.59966 15.4197C5.41325 15.2119 4.88034 14.6819 4.00094 13.8296C3.10392 13.002 2.4796 12.3135 2.12796 11.7643C1.75871 11.2396 1.68857 10.8172 1.91754 10.4971C2.35786 9.88139 2.81197 9.74087 3.27989 10.0755C3.60004 10.3045 4.06787 10.7694 4.68339 11.4701C5.28129 12.1955 5.92323 12.8594 6.6092 13.4616Z" fill="#3CAB15"/>
</svg>
