<svg width="96" height="21" viewBox="0 0 96 21" fill="none" xmlns="http://www.w3.org/2000/svg">
<path d="M22.5998 20V1.37269H24.7101V20H22.5998Z" fill="#FFC700"/>
<path d="M34.764 20.2251C33.3946 20.2251 32.194 19.9062 31.1623 19.2684C30.1493 18.6119 29.3615 17.7302 28.7987 16.6234C28.2359 15.5167 27.9546 14.2974 27.9546 12.9655C27.9546 11.6149 28.2359 10.3956 28.7987 9.30759C29.3615 8.20083 30.1493 7.32855 31.1623 6.69076C32.194 6.03421 33.3946 5.70593 34.764 5.70593C35.927 5.70593 36.9212 5.93103 37.7466 6.38124C38.5907 6.83145 39.2754 7.4411 39.8006 8.21021V0.303446H41.911V20H39.8006V17.749C39.2754 18.4993 38.5907 19.0996 37.7466 19.5498C36.9212 20 35.927 20.2251 34.764 20.2251ZM35.0453 18.3117C36.0958 18.3117 36.9775 18.0679 37.6903 17.5801C38.4219 17.0924 38.9753 16.4452 39.3504 15.6386C39.7256 14.8132 39.9132 13.9222 39.9132 12.9655C39.9132 11.9901 39.7256 11.099 39.3504 10.2924C38.9753 9.48579 38.4219 8.83862 37.6903 8.3509C36.9775 7.86317 36.0958 7.61931 35.0453 7.61931C34.0136 7.61931 33.1226 7.86317 32.3722 8.3509C31.6219 8.83862 31.0497 9.48579 30.6558 10.2924C30.2619 11.099 30.0649 11.9901 30.0649 12.9655C30.0649 13.9222 30.2619 14.8132 30.6558 15.6386C31.0497 16.4452 31.6219 17.0924 32.3722 17.5801C33.1226 18.0679 34.0136 18.3117 35.0453 18.3117ZM51.8078 20.2251C50.3822 20.2251 49.1347 19.9062 48.0655 19.2684C46.9963 18.6119 46.1615 17.7302 45.5612 16.6234C44.9797 15.5167 44.6889 14.2974 44.6889 12.9655C44.6889 11.6149 44.9703 10.3956 45.5331 9.30759C46.0958 8.20083 46.9025 7.32855 47.9529 6.69076C49.0034 6.03421 50.2415 5.70593 51.6672 5.70593C53.1116 5.70593 54.3496 6.03421 55.3814 6.69076C56.4318 7.32855 57.2385 8.20083 57.8012 9.30759C58.364 10.3956 58.6454 11.6149 58.6454 12.9655V13.8097H46.8556C46.9681 14.635 47.2307 15.3948 47.6434 16.0888C48.0749 16.7641 48.647 17.3081 49.3598 17.7208C50.0727 18.1148 50.898 18.3117 51.836 18.3117C52.8302 18.3117 53.6649 18.096 54.3403 17.6646C55.0156 17.2143 55.5408 16.6422 55.916 15.9481H58.2233C57.7356 17.205 56.9571 18.2367 55.8878 19.0433C54.8374 19.8312 53.4774 20.2251 51.8078 20.2251ZM46.8837 11.84H56.4506C56.263 10.6394 55.7565 9.63586 54.9312 8.82924C54.1058 8.02262 53.0178 7.61931 51.6672 7.61931C50.3165 7.61931 49.2285 8.02262 48.4032 8.82924C47.5965 9.63586 47.09 10.6394 46.8837 11.84ZM61.1395 3.56745V0.809929H63.4187V3.56745H61.1395ZM61.2239 20V5.93103H63.3343V20H61.2239ZM72.9315 20.2251C71.5621 20.2251 70.3616 19.9062 69.3299 19.2684C68.3169 18.6119 67.529 17.7302 66.9663 16.6234C66.4035 15.5167 66.1221 14.2974 66.1221 12.9655C66.1221 11.6149 66.4035 10.3956 66.9663 9.30759C67.529 8.20083 68.3169 7.32855 69.3299 6.69076C70.3616 6.03421 71.5621 5.70593 72.9315 5.70593C74.0946 5.70593 75.0888 5.93103 75.9141 6.38124C76.7583 6.83145 77.443 7.4411 77.9682 8.21021V5.93103H80.0786V20H77.9682V17.749C77.443 18.4993 76.7583 19.0996 75.9141 19.5498C75.0888 20 74.0946 20.2251 72.9315 20.2251ZM73.2129 18.3117C74.2634 18.3117 75.145 18.0679 75.8579 17.5801C76.5894 17.0924 77.1428 16.4452 77.518 15.6386C77.8932 14.8132 78.0808 13.9222 78.0808 12.9655C78.0808 11.9901 77.8932 11.099 77.518 10.2924C77.1428 9.48579 76.5894 8.83862 75.8579 8.3509C75.145 7.86317 74.2634 7.61931 73.2129 7.61931C72.1812 7.61931 71.2901 7.86317 70.5398 8.3509C69.7894 8.83862 69.2173 9.48579 68.8234 10.2924C68.4294 11.099 68.2325 11.9901 68.2325 12.9655C68.2325 13.9222 68.4294 14.8132 68.8234 15.6386C69.2173 16.4452 69.7894 17.0924 70.5398 17.5801C71.2901 18.0679 72.1812 18.3117 73.2129 18.3117ZM88.8499 20.2251C87.5555 20.2251 86.4582 20.0094 85.5578 19.5779C84.6761 19.1465 84.0008 18.5837 83.5318 17.8897C83.0629 17.1768 82.8002 16.4077 82.744 15.5823H84.9387C84.995 16.0513 85.1544 16.5109 85.4171 16.9611C85.6984 17.3926 86.1205 17.749 86.6833 18.0303C87.246 18.293 87.9776 18.4243 88.878 18.4243C89.1594 18.4243 89.5064 18.3961 89.9191 18.3399C90.3318 18.2836 90.7258 18.1804 91.1009 18.0303C91.4949 17.8803 91.8231 17.6552 92.0858 17.355C92.3484 17.0549 92.4797 16.6703 92.4797 16.2014C92.4797 15.6199 92.2546 15.1697 91.8044 14.8508C91.3542 14.5319 90.7727 14.288 90.0598 14.1192C89.347 13.9316 88.5873 13.7534 87.7807 13.5846C86.9928 13.4157 86.2424 13.2 85.5296 12.9374C84.8168 12.656 84.2353 12.2714 83.7851 11.7837C83.3349 11.2772 83.1098 10.5926 83.1098 9.72965C83.1098 8.45407 83.5693 7.46924 84.4885 6.77517C85.4264 6.06234 86.8052 5.70593 88.6248 5.70593C89.8629 5.70593 90.8664 5.9029 91.6355 6.29683C92.4234 6.672 93.0143 7.15972 93.4082 7.76C93.8209 8.36027 94.0648 9.00745 94.1398 9.70152H92.0013C91.9263 9.10124 91.6262 8.58538 91.1009 8.15393C90.5944 7.72248 89.7503 7.50676 88.5685 7.50676C86.3362 7.50676 85.2201 8.18207 85.2201 9.53269C85.2201 10.0954 85.4452 10.5269 85.8954 10.827C86.3456 11.1272 86.9271 11.371 87.64 11.5586C88.3528 11.7274 89.1031 11.8963 89.891 12.0651C90.6976 12.2152 91.4573 12.4309 92.1702 12.7123C92.883 12.9937 93.4645 13.397 93.9147 13.9222C94.3649 14.4287 94.59 15.1228 94.59 16.0044C94.59 17.3738 94.0648 18.4243 93.0143 19.1559C91.9826 19.8687 90.5944 20.2251 88.8499 20.2251Z" fill="white"/>
<path d="M3.74843 17.45V10.2462H5.02235V17.45H3.74843ZM8.88657 17.45V10.2462H10.1605V17.45H8.88657ZM0.945801 20V18.725H17.9314V20H0.945801ZM13.8549 17.45V10.2462H15.1288V17.45H13.8549ZM0.945801 8.97125V7.845L9.4386 3L17.9314 7.845V8.97125H0.945801ZM3.79089 7.69625H15.0863L9.4386 4.46625L3.79089 7.69625Z" fill="white"/>
</svg>
