<svg width="15" height="15" viewBox="0 0 15 15" fill="none" xmlns="http://www.w3.org/2000/svg">
<path d="M9.69778 12.4333C10.4226 12.4333 11.5823 10.6696 13.1769 7.14219C13.3702 6.73146 13.5272 6.38113 13.648 6.09121C13.7688 5.77712 13.8775 5.53552 13.9742 5.36639C14.1191 5.02815 14.252 4.85902 14.3728 4.85902C14.5178 4.85902 14.5903 4.95567 14.5903 5.14895C14.5903 5.8496 14.2279 6.96099 13.5031 8.4831C11.6427 12.4696 10.1327 14.4628 8.97296 14.4628C8.10319 14.4628 7.53541 14.2575 7.26965 13.8467C7.00388 13.4118 6.46027 12.3005 5.63881 10.5126C4.914 11.7931 4.28583 12.7716 3.7543 13.4481C3.24693 14.1246 2.7758 14.4628 2.34091 14.4628C1.90602 14.4628 1.56777 14.4145 1.32617 14.3179C1.08456 14.2212 0.939599 14.1246 0.891278 14.0279C0.818796 13.9071 0.782556 13.7622 0.782556 13.593C0.782556 13.4239 0.939599 13.1944 1.25369 12.9045C2.60667 11.6723 3.8147 10.3435 4.87776 8.91799C4.53951 8.26565 4.09254 7.55292 3.53685 6.77978C2.98116 5.98249 2.52211 5.33015 2.1597 4.82278C1.82146 4.31541 1.65233 3.85636 1.65233 3.44563C1.65233 3.01075 1.80938 2.47922 2.12346 1.85104C2.46171 1.19871 2.84828 0.872543 3.28317 0.872543C3.74222 0.872543 4.06838 1.08999 4.26167 1.52488C4.47911 1.95976 4.58783 2.40673 4.58783 2.86578C4.80528 3.22819 5.43345 4.48454 6.47235 6.63482C6.83476 6.05497 7.28173 5.26975 7.81326 4.27917C8.34479 3.26443 8.75552 2.53962 9.04544 2.10473C9.33537 1.64568 9.57698 1.41615 9.77026 1.41615C10.2051 1.41615 10.483 1.48864 10.6038 1.6336C10.7488 1.77856 10.8212 1.99601 10.8212 2.28593C10.8212 2.57586 10.7004 2.8537 10.4588 3.11947C10.2414 3.38523 9.9877 3.63892 9.69778 3.88052C9.40785 4.09797 9.11793 4.39997 8.828 4.78654C8.56223 5.17311 7.98238 6.19993 7.08844 7.86701C8.56223 10.9112 9.43201 12.4333 9.69778 12.4333Z" fill="#FE0000"/>
</svg>
